<svg xmlns="http://www.w3.org/2000/svg" viewBox="0 0 199.78 166.34"><defs><style>.cls-1,.cls-2{fill:none;stroke-linecap:round;stroke-linejoin:round;stroke-width:3px;}.cls-1{stroke:#91b07c;}.cls-2{stroke:#48653c;}.cls-3{font-size:42.78px;fill:#48653c;font-family:AbrilFatface-Regular, Abril Fatface;letter-spacing:0.02em;}.cls-4{letter-spacing:0.02em;}.cls-5{letter-spacing:0.01em;}</style></defs><g id="Capa_2" data-name="Capa 2"><g id="Background"><path class="cls-1" d="M34.14,102.23a65.5,65.5,0,1,1,131,0"/><path class="cls-1" d="M40.06,102.23a59.58,59.58,0,0,1,119.16,0"/><path class="cls-1" d="M46,102.23a53.66,53.66,0,0,1,107.32,0"/><path class="cls-1" d="M51.9,102.23a47.74,47.74,0,1,1,95.48,0"/><path class="cls-1" d="M57.82,102.23a41.82,41.82,0,0,1,83.64,0"/><path class="cls-1" d="M63.75,102.23a35.9,35.9,0,1,1,71.79,0"/><path class="cls-1" d="M69.67,102.23a30,30,0,0,1,60,0"/><path class="cls-1" d="M75.59,102.23a24,24,0,0,1,48.1,0"/><path class="cls-1" d="M81.51,102.23a18.13,18.13,0,1,1,36.26,0"/><path class="cls-1" d="M87.43,102.23a12.21,12.21,0,1,1,24.42,0"/><line class="cls-2" x1="26.28" y1="101.06" x2="1.5" y2="101.06"/><line class="cls-2" x1="198.28" y1="101.06" x2="173.5" y2="101.06"/><line class="cls-2" x1="27.97" y1="83.15" x2="3.94" y2="77.13"/><line class="cls-2" x1="33.97" y1="66.2" x2="12.13" y2="54.51"/><line class="cls-2" x1="43.92" y1="51.21" x2="25.57" y2="34.56"/><line class="cls-2" x1="57.21" y1="39.1" x2="43.46" y2="18.48"/><line class="cls-2" x1="73.04" y1="30.57" x2="64.72" y2="7.24"/><line class="cls-2" x1="90.48" y1="26.16" x2="88.08" y2="1.5"/><line class="cls-2" x1="108.46" y1="26.12" x2="112.14" y2="1.62"/><line class="cls-2" x1="125.92" y1="30.45" x2="135.44" y2="7.58"/><line class="cls-2" x1="141.79" y1="38.9" x2="156.59" y2="19.03"/><line class="cls-2" x1="155.14" y1="50.95" x2="174.33" y2="35.28"/><line class="cls-2" x1="165.15" y1="65.89" x2="187.58" y2="55.35"/><line class="cls-2" x1="171.23" y1="82.82" x2="195.55" y2="78.05"/><text class="cls-3" transform="translate(27.14 153.89)">r<tspan class="cls-4" x="22.03" y="0">oom</tspan><tspan class="cls-5" x="109.69" y="0">l</tspan><tspan class="cls-4" x="123.64" y="0">y</tspan></text></g></g></svg>