<svg xmlns="http://www.w3.org/2000/svg" viewBox="0 0 143.94 119.76"><defs><style>.cls-1{fill:none;stroke:#91b07c;stroke-linecap:round;stroke-linejoin:round;stroke-width:2.16px;}.cls-2{font-size:30.82px;fill:#fcf8f5;font-family:AbrilFatface-Regular, Abril Fatface;letter-spacing:0.02em;}.cls-3{letter-spacing:0.03em;}.cls-4{letter-spacing:0.01em;}.cls-5{letter-spacing:0.02em;}</style></defs><g id="Capa_2" data-name="Capa 2"><g id="Background"><path class="cls-1" d="M24.6,73.66a47.19,47.19,0,1,1,94.38,0"/><path class="cls-1" d="M28.86,73.66a42.93,42.93,0,1,1,85.86,0"/><path class="cls-1" d="M33.13,73.66a38.66,38.66,0,1,1,77.32,0"/><path class="cls-1" d="M37.4,73.66a34.4,34.4,0,1,1,68.79,0"/><path class="cls-1" d="M41.66,73.66a30.13,30.13,0,0,1,60.26,0"/><path class="cls-1" d="M45.93,73.66a25.86,25.86,0,1,1,51.72,0"/><path class="cls-1" d="M50.19,73.66a21.6,21.6,0,0,1,43.2,0"/><path class="cls-1" d="M54.46,73.66a17.33,17.33,0,0,1,34.66,0"/><path class="cls-1" d="M58.73,73.66a13.07,13.07,0,1,1,26.13,0"/><path class="cls-1" d="M63,73.66a8.8,8.8,0,0,1,17.6,0"/><line class="cls-1" x1="18.93" y1="72.81" x2="1.08" y2="72.81"/><line class="cls-1" x1="142.86" y1="72.81" x2="125.01" y2="72.81"/><line class="cls-1" x1="20.15" y1="59.91" x2="2.84" y2="55.57"/><line class="cls-1" x1="24.48" y1="47.7" x2="8.74" y2="39.28"/><line class="cls-1" x1="31.64" y1="36.9" x2="18.42" y2="24.9"/><line class="cls-1" x1="41.22" y1="28.17" x2="31.31" y2="13.32"/><line class="cls-1" x1="52.63" y1="22.03" x2="46.63" y2="5.21"/><line class="cls-1" x1="65.19" y1="18.85" x2="63.46" y2="1.08"/><line class="cls-1" x1="78.15" y1="18.82" x2="80.79" y2="1.16"/><line class="cls-1" x1="90.72" y1="21.94" x2="97.58" y2="5.46"/><line class="cls-1" x1="102.16" y1="28.03" x2="112.82" y2="13.71"/><line class="cls-1" x1="111.78" y1="36.71" x2="125.6" y2="25.42"/><line class="cls-1" x1="118.99" y1="47.47" x2="135.15" y2="39.88"/><line class="cls-1" x1="123.37" y1="59.67" x2="140.89" y2="56.23"/><text class="cls-2" transform="translate(18.56 110.79)">r<tspan class="cls-3" x="15.87" y="0">oom</tspan><tspan class="cls-4" x="79.03" y="0">l</tspan><tspan class="cls-5" x="89.08" y="0">y</tspan></text></g></g></svg>